<svg width="247" height="226" viewBox="0 0 247 226" fill="none" xmlns="http://www.w3.org/2000/svg">
<path d="M127.16 0.864929C115.063 5.87172 3.99391 56.3432 2.92612 57.2984C0.167442 59.8869 0 61.0124 0 78.9616C0 94.7149 0.057644 95.7854 1.18033 98.0363C2.81083 101.467 5.34443 102.876 10.4638 103.213L14.6279 103.493V179.452C14.6279 255.017 14.6279 255.41 15.8082 257.266C16.4258 258.278 17.7763 259.629 18.7892 260.249C20.6475 261.43 20.7024 261.43 134.473 261.43C248.243 261.43 248.298 261.43 250.153 260.249C251.166 259.629 252.517 258.281 253.137 257.266C254.317 255.41 254.317 255.015 254.317 179.452V103.493L258.424 103.213C263.093 102.876 265.514 101.863 267.37 99.2743C268.662 97.4187 268.662 97.2485 268.833 79.5243L269 61.5751L267.595 59.1568C266.749 57.7514 265.401 56.4008 264.218 55.8381C255.445 51.674 133.18 0.189667 131.662 0.0222168C130.536 -0.090332 128.623 0.244568 127.16 0.864929ZM195.578 37.0434L259.384 64.1636V78.6789V93.1393L252.239 93.3095L245.037 93.4769L244.869 172.641L244.757 251.864H235.19H225.624V187.157V122.455H134.475H43.3236V187.159V251.866H33.7574H24.194L24.0815 172.644L23.914 93.4797L16.7689 93.3122L9.56616 93.142V78.8518C9.56616 68.1053 9.73361 64.449 10.2414 64.1087C12.0421 62.9832 129.806 10.0385 130.706 9.9809C131.324 9.92326 160.47 22.1328 195.578 37.0434ZM216.061 191.941V251.864H210.154H204.247V237.516V223.168H182.583H160.92V208.82V194.472H139.257H117.594V179.844V165.216L91.3164 165.329L64.984 165.496L64.8166 208.652L64.7041 251.864H58.7969H52.8898V191.941V132.019H134.475H216.061V191.941ZM108.03 184.629V193.912H91.1517H74.273V184.629V175.345H91.1517H108.03V184.629ZM108.03 213.604V223.171L91.3191 223.058L74.553 222.888L74.3855 213.434L74.273 204.038H91.1517H108.03V213.604ZM151.354 213.604V223.171H134.475H117.594V213.604V204.038H134.475H151.354V213.604ZM108.03 242.3V251.866H91.1517H74.273V242.3V232.734H91.1517H108.03V242.3ZM151.354 242.3V251.866H134.475H117.594V242.3V232.734H134.475H151.354V242.3ZM194.678 242.3V251.866H177.799H160.92V242.3V232.734H177.799H194.678V242.3Z" fill="url(#paint0_linear_3524_3968)"/>
<path d="M41.0728 98.2637V103.328L58.9644 103.216L76.8011 103.048V98.2664V93.4847L58.9644 93.3173L41.0728 93.2047V98.2637ZM91.374 93.9294C91.2066 94.3796 91.1489 96.5728 91.2615 98.8813L91.4289 103.045L109.321 103.213L127.157 103.325V98.2609V93.1965H109.433C95.088 93.1992 91.5991 93.3667 91.374 93.9294ZM141.788 98.2637V103.328H159.792H177.796V98.2637V93.1992H159.792H141.788V98.2637ZM192.43 98.2637V103.328L210.321 103.216L228.158 103.048V98.2664V93.4847L210.321 93.3173L192.43 93.2047V98.2637Z" fill="url(#paint1_linear_3524_3968)"/>
<defs>
<linearGradient id="paint0_linear_3524_3968" x1="195.5" y1="7.24072e-06" x2="-44.5" y2="464.5" gradientUnits="userSpaceOnUse">
<stop stop-color="#B7E8C7"/>
<stop offset="1" stop-color="#678270"/>
</linearGradient>
<linearGradient id="paint1_linear_3524_3968" x1="177.04" y1="93.1965" x2="176.384" y2="115.985" gradientUnits="userSpaceOnUse">
<stop stop-color="#B7E8C7"/>
<stop offset="1" stop-color="#678270"/>
</linearGradient>
</defs>
</svg>
